# xmcd
# 
# Track frame offsets:
#     150
#     22615
#     43537
#     60525
#     86647
#     113175
#     133750
#     152125
#     172437
#     194020
# 
# Disc length: 2929
# 
# Revision: 23
# Processed by: cddbd v1.5.2PL0 Copyright (c) Steve Scherf et al.
# Submitted via: fre:ac v1.0.31
# 
DISCID=870b6f0a
DTITLE=Nine Inch Nails - Pretty Hate Machine
DYEAR=1989
DGENRE=
TTITLE0=Head Like A Hole
TTITLE1=Terrible Lie
TTITLE2=Down In It
TTITLE3=Sanctified
TTITLE4=Something I Can Never Have
TTITLE5=Kinda I Want To
TTITLE6=Sin
TTITLE7=That's What I Get
TTITLE8=The Only Time
TTITLE9=Ringfinger
EXTD=
EXTT0=
EXTT1=
EXTT2=
EXTT3=
EXTT4=
EXTT5=
EXTT6=
EXTT7=
EXTT8=
EXTT9=
PLAYORDER=
